<svg width="176" height="46" viewBox="0 0 176 46" fill="none" xmlns="http://www.w3.org/2000/svg">
<path d="M41.1999 36.0201L43 33.5L44.8001 36.0201C45.2307 36.623 45.2928 37.4144 44.9615 38.077L44.7889 38.4223C44.0518 39.8964 41.9482 39.8964 41.2111 38.4223L41.0385 38.077C40.7072 37.4144 40.7693 36.623 41.1999 36.0201Z" fill="#FB923C"/>
<path d="M43 23V33.5M43 33.5L41.1999 36.0201C40.7693 36.623 40.7072 37.4144 41.0385 38.077L41.2111 38.4223C41.9482 39.8964 44.0518 39.8964 44.7889 38.4223L44.9615 38.077C45.2928 37.4144 45.2307 36.623 44.8001 36.0201L43 33.5Z" stroke="#FB923C"/>
<path d="M23.8166 29.4266L5.1606 21.9642C4.74152 21.7966 4.74152 21.2034 5.1606 21.0358L23.8166 13.5734C23.9344 13.5262 24.0658 13.5257 24.184 13.5718L43.3064 21.0342C43.7307 21.1998 43.7307 21.8002 43.3064 21.9658L24.184 29.4282C24.0658 29.4743 23.9344 29.4738 23.8166 29.4266Z" fill="#2563EB"/>
<path d="M13.5 34.2929V27.2583C13.5 26.8993 13.867 26.6573 14.197 26.7987L23.8075 30.9175C23.9307 30.9703 24.0698 30.9714 24.1938 30.9207L34.3107 26.782C34.6396 26.6474 35 26.8894 35 27.2448V34.27C35 34.416 34.9378 34.5544 34.8246 34.6465C33.5515 35.6826 30.6008 37.5 24.5 37.5C18.3866 37.5 14.8281 35.6751 13.65 34.6401C13.5504 34.5526 13.5 34.4255 13.5 34.2929Z" fill="#2563EB"/>
<path d="M6 11L24 4L43 11" stroke="#60A5FA" stroke-width="3" stroke-linecap="round"/>
<path d="M12 14L24 9.5L37 14" stroke="#60A5FA" stroke-width="3" stroke-linecap="round"/>
<path d="M54.9019 34V30.64H57.8059V20.56H54.9019V17.2H64.7179V20.56H61.8139V30.64H64.7179V34H54.9019ZM66.5904 34V26.92C66.5904 25.896 66.8384 24.968 67.3344 24.136C67.8304 23.304 68.5344 22.64 69.4464 22.144C70.3744 21.648 71.4704 21.4 72.7344 21.4C74.0144 21.4 75.1024 21.648 75.9984 22.144C76.9104 22.64 77.6064 23.304 78.0864 24.136C78.5664 24.968 78.8064 25.896 78.8064 26.92V34H75.0864V27.016C75.0864 26.584 74.9824 26.192 74.7744 25.84C74.5664 25.472 74.2784 25.184 73.9104 24.976C73.5584 24.752 73.1584 24.64 72.7104 24.64C72.2464 24.64 71.8304 24.752 71.4624 24.976C71.1104 25.184 70.8304 25.472 70.6224 25.84C70.4144 26.192 70.3104 26.584 70.3104 27.016V34H66.5904ZM85.5024 34C84.3664 34 83.4784 33.68 82.8384 33.04C82.1984 32.384 81.8784 31.504 81.8784 30.4V18.688H85.6224V30.184C85.6224 30.376 85.6864 30.544 85.8144 30.688C85.9584 30.816 86.1264 30.88 86.3184 30.88H89.0064V34H85.5024ZM79.8624 24.736V21.688H89.0064V24.736H79.8624ZM96.6896 34C95.2976 34 94.0736 33.744 93.0176 33.232C91.9616 32.704 91.1376 31.984 90.5456 31.072C89.9696 30.144 89.6816 29.072 89.6816 27.856C89.6816 26.512 89.9616 25.36 90.5216 24.4C91.0816 23.44 91.8256 22.704 92.7536 22.192C93.6976 21.664 94.7376 21.4 95.8736 21.4C97.1696 21.4 98.2496 21.672 99.1136 22.216C99.9936 22.76 100.658 23.504 101.106 24.448C101.554 25.376 101.778 26.44 101.778 27.64C101.778 27.848 101.762 28.096 101.73 28.384C101.714 28.656 101.69 28.872 101.658 29.032H93.5936C93.6896 29.448 93.8736 29.8 94.1456 30.088C94.4176 30.376 94.7616 30.592 95.1776 30.736C95.5936 30.864 96.0576 30.928 96.5696 30.928H100.338V34H96.6896ZM93.4976 26.704H98.1776C98.1456 26.448 98.0976 26.2 98.0336 25.96C97.9696 25.72 97.8656 25.512 97.7216 25.336C97.5936 25.144 97.4416 24.984 97.2656 24.856C97.0896 24.712 96.8816 24.6 96.6416 24.52C96.4176 24.44 96.1616 24.4 95.8736 24.4C95.5056 24.4 95.1776 24.464 94.8896 24.592C94.6016 24.72 94.3616 24.896 94.1696 25.12C93.9776 25.328 93.8256 25.576 93.7136 25.864C93.6176 26.136 93.5456 26.416 93.4976 26.704ZM103.249 34V25.312C103.249 24.192 103.569 23.312 104.209 22.672C104.849 22.032 105.737 21.712 106.873 21.712H110.449V24.736H107.785C107.561 24.736 107.369 24.816 107.209 24.976C107.049 25.12 106.969 25.312 106.969 25.552V34H103.249ZM111.511 34V26.92C111.511 25.896 111.759 24.968 112.255 24.136C112.751 23.304 113.455 22.64 114.367 22.144C115.295 21.648 116.391 21.4 117.655 21.4C118.935 21.4 120.023 21.648 120.919 22.144C121.831 22.64 122.527 23.304 123.007 24.136C123.487 24.968 123.727 25.896 123.727 26.92V34H120.007V27.016C120.007 26.584 119.903 26.192 119.695 25.84C119.487 25.472 119.199 25.184 118.831 24.976C118.479 24.752 118.079 24.64 117.631 24.64C117.167 24.64 116.751 24.752 116.383 24.976C116.031 25.184 115.751 25.472 115.543 25.84C115.335 26.192 115.231 26.584 115.231 27.016V34H111.511ZM125.983 34V17.2H130.015V23.8H136.567V17.2H140.599V34H136.567V27.16H130.015V34H125.983ZM149.009 34.288C147.745 34.288 146.649 34.048 145.721 33.568C144.809 33.072 144.105 32.408 143.609 31.576C143.113 30.728 142.865 29.792 142.865 28.768V21.688H146.585V28.672C146.585 29.104 146.689 29.504 146.897 29.872C147.105 30.224 147.385 30.512 147.737 30.736C148.105 30.944 148.521 31.048 148.985 31.048C149.433 31.048 149.833 30.944 150.185 30.736C150.553 30.512 150.841 30.224 151.049 29.872C151.257 29.504 151.361 29.104 151.361 28.672V21.688H155.081V28.768C155.081 29.792 154.841 30.728 154.361 31.576C153.881 32.408 153.185 33.072 152.273 33.568C151.377 34.048 150.289 34.288 149.009 34.288ZM163.769 34.288C162.441 34.288 161.281 34.016 160.289 33.472C159.297 32.928 158.529 32.152 157.985 31.144C157.441 30.136 157.169 28.96 157.169 27.616V16.48H160.889V23.032H160.961C161.201 22.696 161.497 22.408 161.849 22.168C162.217 21.912 162.617 21.72 163.049 21.592C163.497 21.464 163.969 21.4 164.465 21.4C165.633 21.4 166.657 21.664 167.537 22.192C168.417 22.72 169.105 23.448 169.601 24.376C170.113 25.304 170.369 26.392 170.369 27.64C170.369 28.6 170.217 29.488 169.913 30.304C169.609 31.12 169.169 31.832 168.593 32.44C168.033 33.032 167.345 33.488 166.529 33.808C165.729 34.128 164.809 34.288 163.769 34.288ZM163.769 31.072C164.345 31.072 164.841 30.936 165.257 30.664C165.673 30.376 165.993 29.992 166.217 29.512C166.457 29.016 166.577 28.464 166.577 27.856C166.577 27.248 166.457 26.704 166.217 26.224C165.993 25.744 165.673 25.368 165.257 25.096C164.841 24.808 164.345 24.664 163.769 24.664C163.193 24.664 162.689 24.808 162.257 25.096C161.841 25.368 161.521 25.744 161.297 26.224C161.073 26.704 160.961 27.248 160.961 27.856C160.961 28.464 161.073 29.016 161.297 29.512C161.521 29.992 161.841 30.376 162.257 30.664C162.689 30.936 163.193 31.072 163.769 31.072Z" fill="#111827"/>
</svg>
