<svg width="42" height="41" viewBox="0 0 42 41" fill="none" xmlns="http://www.w3.org/2000/svg">
<path d="M37.1999 36.0201L39 33.5L40.8001 36.0201C41.2307 36.623 41.2928 37.4144 40.9615 38.077L40.7889 38.4223C40.0518 39.8964 37.9482 39.8964 37.2111 38.4223L37.0385 38.077C36.7072 37.4144 36.7693 36.623 37.1999 36.0201Z" fill="#FB923C"/>
<path d="M39 23V33.5M39 33.5L37.1999 36.0201C36.7693 36.623 36.7072 37.4144 37.0385 38.077L37.2111 38.4223C37.9482 39.8964 40.0518 39.8964 40.7889 38.4223L40.9615 38.077C41.2928 37.4144 41.2307 36.623 40.8001 36.0201L39 33.5Z" stroke="#FB923C"/>
<path d="M19.8166 29.4266L1.1606 21.9642C0.741523 21.7966 0.741524 21.2034 1.1606 21.0358L19.8166 13.5734C19.9344 13.5262 20.0658 13.5257 20.184 13.5718L39.3064 21.0342C39.7307 21.1998 39.7307 21.8002 39.3064 21.9658L20.184 29.4282C20.0658 29.4743 19.9344 29.4738 19.8166 29.4266Z" fill="#2563EB"/>
<path d="M9.5 34.2929V27.2583C9.5 26.8993 9.86703 26.6573 10.197 26.7987L19.8075 30.9175C19.9307 30.9703 20.0698 30.9714 20.1938 30.9207L30.3107 26.782C30.6396 26.6474 31 26.8894 31 27.2448V34.27C31 34.416 30.9378 34.5544 30.8246 34.6465C29.5515 35.6826 26.6008 37.5 20.5 37.5C14.3866 37.5 10.8281 35.6751 9.65002 34.6401C9.5504 34.5526 9.5 34.4255 9.5 34.2929Z" fill="#2563EB"/>
<path d="M2 11L20 4L39 11" stroke="#60A5FA" stroke-width="3" stroke-linecap="round"/>
<path d="M8 14L20 9.5L33 14" stroke="#60A5FA" stroke-width="3" stroke-linecap="round"/>
</svg>
